<svg width="100%" height="100%" viewBox="0 0 139 140" fill="none" xmlns="http://www.w3.org/2000/svg" preserveAspectRatio="none">
<path d="M12.1222 12.839C12.774 15.4128 8.60747 15.1723 8.61818 13.1307C8.62584 11.5854 11.6769 11.0814 12.1222 12.839Z" fill="#E0B94D"/>
<path d="M131.399 0C127.604 0.0895455 128.717 3.63171 132.513 4.30842C136.817 5.07595 139.596 1.58624 137.926 0.555184" fill="#8E430C"/>
<path d="M135.099 5.9989C134.576 4.57385 136.965 4.22206 138.086 5.44244C139.206 6.66282 135.964 8.35139 135.099 5.9989Z" fill="#8E430C"/>
<path d="M133.074 6.90228C134.177 6.92786 134.175 7.92821 133.162 8.30047C132.149 8.67272 131.254 6.85495 133.074 6.90228Z" fill="#8E430C"/>
<path d="M132.896 3.23821C129.965 1.69291 132.464 -0.0289226 134.897 0.52498C139.261 1.52277 135.889 4.81677 132.896 3.23821Z" fill="#9B520A"/>
<path d="M1.36005 137.957C-1.41713 137.212 0.437386 135.522 3.52671 135.804C6.61603 136.084 5.98256 138.943 5.33838 139.314" fill="#8E430C"/>
<path d="M11.01 0.491803C17.4365 0.0197701 21.0767 6.36599 12.6212 8.08398C5.26283 9.57939 2.67998 1.10327 11.01 0.491803Z" fill="#E0B94D"/>
</svg>
