<svg width="100%" height="100%" viewBox="0 0 167 181" fill="none" xmlns="http://www.w3.org/2000/svg" preserveAspectRatio="none">
<path opacity="0.2" d="M15.4529 6.41258C6.63476 7.68796 -0.0350543 14.4307 0.000138621 22.7674C0.0399219 31.1028 0.368899 158.356 2.74671 167.052C5.123 175.752 13.2449 179.04 22.2987 179.844C31.3493 180.649 141.127 181.596 150.488 180.084C159.848 178.573 163.541 174.184 164.798 165.443C166.052 156.702 167.252 34.5529 166.663 24.9587C165.855 11.8173 159.549 5.27919 147.694 5.18836C138.281 5.11545 23.4998 5.2536 15.4529 6.41258Z" fill="#661E22"/>
<path d="M16.8217 3.17718C8.18564 4.45256 1.65353 11.1953 1.68566 19.532C1.72392 27.8674 2.0483 155.122 4.37715 163.817C6.70447 172.517 14.6596 175.804 23.5282 176.608C32.3937 177.414 139.922 178.36 149.09 176.847C158.259 175.336 161.876 170.947 163.108 162.206C164.338 153.465 165.513 31.3149 164.935 21.7208C164.144 8.57805 157.967 2.04251 146.353 1.95168C137.132 1.88133 24.7049 2.0182 16.8217 3.17718Z" fill="#7E2828"/>
<path d="M15.7025 1.30369C7.06498 2.57908 0.532873 9.32058 0.566536 17.6585C0.604789 25.994 0.929175 153.248 3.2565 161.943C5.58382 170.643 13.5389 173.931 22.4075 174.735C31.2731 175.541 138.801 176.488 147.97 174.975C157.137 173.464 160.755 169.075 161.986 160.334C163.214 151.593 164.389 29.444 163.813 19.8486C163.021 6.70713 156.844 0.169024 145.231 0.079478C136.012 0.00656233 23.5842 0.144718 15.7025 1.30369Z" fill="#661E22"/>
<path d="M13.7563 1.93818C10.3915 1.93818 2.79447 8.09123 1.68819 14.7892C0.581907 21.4872 2.57413 157.677 3.2581 161.943C3.94206 166.211 9.09858 172.664 19.28 173.012C21.3518 171.934 21.8721 158.144 21.8721 158.144C21.8721 158.144 22.2255 172.471 23.6424 173.249C26.2605 174.686 40.4662 174.229 41.0384 173.314C41.6107 172.4 38.7509 3.23915 37.6063 1.93818C36.4603 0.637208 17.1945 0.697332 17.0093 1.93818C16.8242 3.17902 15.0064 18.5476 15.0064 18.5476C15.0064 18.5476 15.0538 1.93818 13.7563 1.93818Z" fill="#661E22"/>
<path d="M43.231 173.276C44.397 174.537 60.9682 174.744 62.3025 174.17C63.6383 173.594 66.3084 172.159 66.3084 172.159C66.3084 172.159 67.8339 174.271 68.7872 174.411C69.7404 174.551 72.2208 174.903 72.7915 174.169C73.3638 173.434 74.4655 168.078 74.4655 168.078C74.4655 168.078 74.1258 173.786 75.0806 174.169C76.0354 174.551 89.1807 174.811 90.7062 174.425C92.2317 174.037 91.101 159.754 91.863 159.259C92.6265 158.766 93.3885 173.628 94.1521 174.169C94.9156 174.709 125.047 175.3 126.574 174.765C128.099 174.23 127.718 1.89339 126.002 0.982584C124.286 0.0717775 111.698 0.250869 110.745 0.982584C109.79 1.7143 108.456 15.5491 108.456 15.5491C108.456 15.5491 108.647 1.85118 107.502 0.982584C106.358 0.113992 98.4303 0.142135 97.4342 0.145972C96.4381 0.14981 95.4879 38.7823 95.4879 38.7823C95.4879 38.7823 95.2981 1.79489 93.1988 0.983863C91.0995 0.174115 65.1592 -0.396418 63.2542 0.341693C61.3508 1.07853 57.5362 11.6718 57.5362 11.6718C57.5362 11.6718 59.2484 1.57103 57.9172 0.985142C56.586 0.399258 41.6106 0.0321216 39.6077 0.985142C37.6063 1.93816 41.3275 171.216 43.231 173.276Z" fill="#661E22"/>
<path d="M127.67 1.47491C125.482 2.18104 128.835 172.714 129.939 174.17C131.044 175.626 149.032 175.099 151.482 174.17C153.932 173.241 154.036 153.984 154.036 153.984C154.036 153.984 154.51 170.165 155.752 170.725C156.995 171.286 161.194 163.729 161.429 157.342C161.665 150.955 163.555 17.4242 162.8 13.158C162.046 8.89184 156.612 1.98787 152.172 1.10009C147.732 0.211035 149.718 23.2882 148.445 21.8299C147.172 20.3716 148.766 1.88937 146.999 0.984964C145.23 0.0792753 129.134 1.00287 127.67 1.47491Z" fill="#661E22"/>
<path d="M152.653 18.1447C152.664 15.7321 156.349 16.0365 157.325 18.3391C158.296 20.6455 152.635 22.1269 152.653 18.1447Z" fill="#661E22"/>
<path d="M148.445 11.7663C150.647 14.5012 149.989 18.1278 148.306 18.3478C146.621 18.5679 146.897 9.84358 148.445 11.7663Z" fill="#661E22"/>
<path d="M11.7257 6.41885C9.51777 5.55282 3.31617 9.48898 2.50215 14.5099C1.68812 19.5309 2.99179 114.082 4.42245 115.258C5.85312 116.434 22.1581 117.192 22.1581 117.192C22.1581 117.192 6.13772 117.844 4.99319 120.009C3.84866 122.173 6.61206 160.87 6.70999 164.504C6.80792 168.139 14.7202 171.679 17.0077 170.483C19.2968 169.287 19.2968 120.007 19.2968 120.007C19.2968 120.007 23.3027 169.521 25.5902 170.72C27.8793 171.918 36.9636 171.442 39.0324 168.57C41.1011 165.697 37.0264 7.50235 35.6003 4.80703C34.1727 2.11299 22.6034 0.561292 21.2355 1.93518C19.8675 3.30906 16.1493 71.5939 16.1493 71.5939C16.1493 71.5939 14.1648 7.37571 11.7257 6.41885Z" fill="#7E2828"/>
<path d="M41.1139 2.45886C39.1094 4.13976 39.4721 64.6137 41.1139 64.9335C42.7557 65.2533 53.0535 51.8458 54.198 48.9829C55.3425 46.12 56.8298 5.39084 55.6853 4.80879C54.5423 4.22675 42.9822 0.891817 41.1139 2.45886Z" fill="#7E2828"/>
<path d="M64.7834 2.41909C60.548 3.58702 58.2038 22.6295 57.6316 25.1675C57.0593 27.7055 59.4432 168.599 62.1133 169.423C64.7834 170.247 69.0815 173.626 71.3629 172.639C73.6443 171.65 73.0797 141.138 73.0797 141.138C73.0797 141.138 74.5104 171.801 77.0841 172.339C79.6593 172.877 87.5838 172.721 89.7367 171.677C91.8895 170.633 93.0922 6.07127 90.8093 4.00661C88.5279 1.93938 68.5658 1.37525 64.7834 2.41909Z" fill="#7E2828"/>
<path d="M56.0969 55.8821C53.4008 54.6272 41.7612 64.7867 41.1139 68.3686C40.4667 71.9504 43.8987 167.376 44.7571 169.29C45.6155 171.204 58.7746 169.29 59.3469 169.29C59.9192 169.29 58.5681 57.0321 56.0969 55.8821Z" fill="#7E2828"/>
<path d="M93.9626 156.424C94.3252 159.71 95.3933 169.077 96.5378 170.139C97.6823 171.202 122.571 171.707 124 170.139C125.431 168.572 126.003 6.41905 124.573 5.46219C123.144 4.50533 113.989 3.67639 112.558 4.80851C111.128 5.94062 107.409 39.8195 107.409 39.8195C107.409 39.8195 108.84 2.69011 106.552 3.00096C104.263 3.31182 99.113 3.46021 98.2546 5.1782C97.3947 6.89875 93.1302 148.885 93.9626 156.424Z" fill="#7E2828"/>
<path d="M129.816 4.81005C128.838 6.19929 129.244 105.673 130.007 106.788C130.771 107.905 144.501 109.979 145.454 109.819C146.407 109.659 148.315 82.6801 148.126 83.092C147.934 83.5052 149.46 94.8199 150.604 95.1397C151.749 95.4583 158.996 96.4151 159.949 94.8212C160.902 93.2273 160.14 18.4581 159.949 14.7905C159.758 11.123 152.923 6.95275 151.668 8.16161C150.413 9.37048 149.89 42.6929 149.89 42.6929C149.89 42.6929 146.028 6.41036 143.166 5.17975C140.305 3.94786 131.342 2.64049 129.816 4.81005Z" fill="#7E2828"/>
<path d="M130.197 111.571C129.908 114.134 131.914 170.671 133.248 171.256C134.582 171.84 147.933 172.083 150.603 170.139C153.273 168.194 152.509 151.112 152.509 151.112C152.509 151.112 154.607 164.057 157.086 164.664C159.566 165.27 161.077 158.764 160.416 155.098C159.756 151.431 161.814 98.8209 160.308 98.18C158.803 97.5391 149.025 97.2794 149.146 100.438C149.267 103.597 147.36 111.57 147.36 111.57C147.36 111.57 130.414 109.642 130.197 111.571Z" fill="#7E2828"/>
<path d="M150.955 142.739C155.289 144.177 153.426 151.381 148.173 148.963C142.921 146.547 146.828 141.369 150.955 142.739Z" fill="#9B520A"/>
<path d="M151.382 69.8031C157.849 71.2627 152.339 77.9441 149.154 76.2581C145.968 74.5734 145.709 68.5239 151.382 69.8031Z" fill="#9B520A"/>
<path d="M121.317 78.9293C122.736 79.9412 124.44 102.508 122.067 108.852C119.696 115.195 119.535 110.098 119.025 125.745C118.516 141.389 117.344 146.342 114.658 147.063C111.981 147.786 109.193 118.322 110.043 116.086C110.899 113.848 112.556 135.998 114.248 136.48C115.936 136.966 115.39 117.347 115.579 108.05C115.772 98.7496 119.012 102.665 119.29 96.2768C119.57 89.8897 119.539 77.6616 121.317 78.9293Z" fill="#9B520A"/>
<path d="M155.645 28.4555C156.642 30.5956 153.595 30.8643 153.222 29.4597C152.845 28.0589 155.105 27.2952 155.645 28.4555Z" fill="#9B520A"/>
<path d="M154.481 137.331C156.492 135.716 153.546 133.829 151.803 135.192C150.059 136.552 152.467 138.94 154.481 137.331Z" fill="#9B520A"/>
<path d="M141.678 153.626C142.983 153.875 141.459 156.397 140.5 155.364C139.543 154.328 139.904 153.283 141.678 153.626Z" fill="#9B520A"/>
<path d="M137.638 9.43059C136.708 6.74166 131.221 5.97413 132.055 10.399C132.887 14.8225 139.477 14.7496 137.638 9.43059Z" fill="#5E2B2C"/>
<path d="M72.9687 132.775C69.1878 135.368 72.1532 171.205 73.4002 173.068C74.6458 174.931 76.0519 136.534 72.9687 132.775Z" fill="#5E2B2C"/>
<path d="M65.6811 26.5375C66.4569 28.583 66.9067 40.0218 66.3666 42.7274C65.8219 45.4317 63.9199 45.3357 63.1671 49.7516C62.4189 54.1675 62.8825 67.0684 60.9515 68.2082C59.022 69.3467 59.1138 44.0987 58.8399 39.6969C58.5645 35.2977 57.8132 12.7028 60.3333 12.4444C62.855 12.1898 61.7074 18.1996 62.7372 21.349C63.7654 24.4985 64.9589 24.6226 65.6811 26.5375Z" fill="#5E2B2C"/>
<path d="M63.5976 34.2742C65.4353 32.7289 63.57 21.9131 61.5809 22.4133C59.5841 22.9122 59.4203 37.7767 63.5976 34.2742Z" fill="#934B0A"/>
<path d="M80.948 117.184C82.3297 117.83 81.5539 125.56 81.8217 134.224C82.0941 142.896 85.5491 147.304 86.0066 159.185C86.126 162.296 81.5555 171.768 79.9259 170.11C76.7815 166.919 78.9619 150.099 78.7783 140.4C78.5962 130.69 78.7936 116.178 80.948 117.184Z" fill="#5E2B2C"/>
<path d="M81.5135 147.771C81.7936 149.739 84.5401 153.258 84.2662 157.337C83.9939 161.417 81.8073 166.677 80.7026 165.506C79.3331 164.059 80.3216 152.398 80.4088 146.08C80.496 139.759 80.3185 139.399 81.5135 147.771Z" fill="#5E2B2C"/>
<path d="M50.9515 91.5115C49.8437 87.3693 42.952 89.2383 44.8203 94.3641C46.6901 99.4912 52.9269 98.899 50.9515 91.5115Z" fill="#9B520A"/>
<path d="M70.2689 14.8076C69.0219 12.1647 65.2241 13.5616 66.6043 15.8898C67.9829 18.2192 71.5145 17.4517 70.2689 14.8076Z" fill="#5E2B2C"/>
<path d="M100.802 163.522C100.179 159.557 96.132 160.035 96.7012 163.522C97.2719 167.009 101.426 167.486 100.802 163.522Z" fill="#5E2B2C"/>
<path d="M98.7547 171.135C98.7547 169.341 95.6302 168.973 96.0495 171.135C96.4702 173.301 98.7547 172.931 98.7547 171.135Z" fill="#5E2B2C"/>
<path d="M89.0727 139.906C91.6051 145.83 84.0371 149.822 82.634 143.704C81.2309 137.588 87.4937 136.21 89.0727 139.906Z" fill="#9B520A"/>
<path d="M85.9231 15.3251C83.149 11.467 78.2786 15.6526 81.6479 20.5443C85.0188 25.4399 88.6972 19.1845 85.9231 15.3251Z" fill="#5E2B2C"/>
<path d="M83.4371 25.9017C83.079 23.6068 81.7279 22.9263 81.7111 25.5794C81.6912 28.2312 83.6237 27.1093 83.4371 25.9017Z" fill="#9B520A"/>
<path d="M11.3083 32.1763C7.85636 30.7934 9.34058 23.8613 13.5255 26.187C17.7058 28.5126 14.5935 33.4964 11.3083 32.1763Z" fill="#9B520A"/>
<path d="M13.9487 147.348C8.79835 145.943 13.1867 139.511 15.7237 141.133C18.2606 142.757 18.4672 148.581 13.9487 147.348Z" fill="#9B520A"/>
<path d="M31.8203 126.156C31.1103 128.1 30.4661 136.767 30.8701 139.387C31.2756 142.005 32.9128 141.972 33.4575 146.245C34.0022 150.517 33.2938 165.694 34.9234 166.853C36.553 168.011 37.064 140.932 37.3976 136.707C37.7327 132.483 38.8864 113.09 36.7289 112.761C34.5699 112.437 35.4207 118.254 34.4659 121.252C33.5111 124.254 32.4844 124.334 31.8203 126.156Z" fill="#5E2B2C"/>
<path d="M34.3774 140.872C34.9665 138.654 33.6276 124.704 35.3735 125.006C26.5018 123.47 32.9391 146.28 34.3774 140.872Z" fill="#934B0A"/>
<path d="M21.3966 74.0044C20.2659 73.0322 18.9086 52.2627 20.7968 46.1557C22.6865 40.0487 22.8135 39.1302 23.219 24.0687C23.626 9.00968 24.5594 4.24202 26.697 3.54868C28.83 2.85407 31.0502 31.2119 30.3739 33.3648C29.693 35.519 28.3725 14.1982 27.0229 13.7326C25.6795 13.2657 26.114 32.1508 25.9625 41.1003C25.8095 50.051 23.2297 53.9756 23.0079 60.1223C22.7875 66.2728 22.8135 75.2273 21.3966 74.0044Z" fill="#5E2B2C"/>
<path d="M21.658 74.561C20.4722 75.184 21.1393 82.6252 20.9067 90.9658C20.6741 99.3114 17.7087 105.791 17.3155 117.228C17.2115 120.222 21.1362 129.339 22.5363 127.743C25.2354 124.673 23.3641 108.482 23.5186 99.1464C23.6778 89.8017 23.5079 73.5927 21.658 74.561Z" fill="#9B520A"/>
<path d="M21.1714 106.24C20.9296 108.132 18.5732 111.52 18.8073 115.446C19.0415 119.372 20.9174 124.437 21.8661 123.309C23.0412 121.917 22.192 110.693 22.1185 104.61C22.0436 98.5274 22.1966 98.182 21.1714 106.24Z" fill="#934B0A"/>
<path d="M7.57339 150.134C6.78079 148.075 9.20604 147.817 9.50441 149.168C9.80279 150.516 8.00183 151.249 7.57339 150.134Z" fill="#9B520A"/>
<path d="M8.50019 37.3819C6.89968 38.9335 9.24536 40.7513 10.6347 39.4414C12.021 38.1302 10.1022 35.8327 8.50019 37.3819Z" fill="#9B520A"/>
<path d="M18.6979 21.6992C17.6574 21.4575 18.8724 19.0295 19.6359 20.026C20.3994 21.0225 20.1118 22.0254 18.6979 21.6992Z" fill="#9B520A"/>
<path d="M25.5618 164.572C26.3024 167.162 30.6725 167.9 30.0084 163.641C29.3458 159.383 24.096 159.45 25.5618 164.572Z" fill="#5E2B2C"/>
</svg>
