<svg width="14" height="14" viewBox="0 0 14 14" fill="none" xmlns="http://www.w3.org/2000/svg">
<path opacity="0.2" d="M6.9134 13.7547C10.4047 13.7547 13.235 13.0607 13.235 12.2047C13.235 11.3487 10.4047 10.6548 6.9134 10.6548C3.42207 10.6548 0.591797 11.3487 0.591797 12.2047C0.591797 13.0607 3.42207 13.7547 6.9134 13.7547Z" fill="black"/>
<path d="M9.59091 3.12874C9.22175 2.9624 8.33315 2.61433 7.12827 2.65114C6.00238 2.68562 5.18507 3.03771 4.82227 3.21811C5.22958 4.06018 5.63656 4.90193 6.04388 5.744C6.80128 5.72794 7.55835 5.71187 8.31575 5.69581L9.59091 3.12874Z" fill="url(#paint0_linear_4526_9585)"/>
<path d="M6.99567 4.86504C6.87652 4.63009 6.36846 3.69631 5.26399 3.31878C4.70104 3.12633 4.20135 3.15344 3.90615 3.19461C3.83453 3.21 3.32279 3.32982 3.07512 3.82516C2.91112 4.15282 2.95296 4.46408 2.97338 4.5752C4.31414 4.67193 5.6549 4.76865 6.99567 4.86504Z" fill="url(#paint1_linear_4526_9585)"/>
<path d="M11.8803 4.21329C11.6219 3.48233 10.834 2.98598 9.99129 2.97527C9.30451 2.96657 8.80917 3.28285 8.66593 3.38159C8.52502 3.47229 8.20606 3.70222 8.0424 4.08309C7.88376 4.45292 7.95739 4.76485 8.00023 4.89806C9.29347 4.67014 10.587 4.44154 11.8803 4.21329Z" fill="url(#paint2_linear_4526_9585)"/>
<path d="M8.85466 3.04878C8.84729 2.89382 7.99317 2.74689 7.14239 2.78907C6.38131 2.82689 5.7772 3.00795 5.40234 3.14651C5.58977 3.19036 5.91877 3.29344 6.24944 3.55182C6.54029 3.77941 6.71064 4.03243 6.80168 4.19308C6.92551 4.15393 7.08181 4.11544 7.26455 4.09603C7.457 4.07527 7.62568 4.0813 7.75989 4.09502C7.83821 3.90057 7.9751 3.64353 8.22511 3.43234C8.55411 3.15388 8.85901 3.14082 8.85466 3.04878Z" fill="url(#paint3_linear_4526_9585)"/>
<path d="M3.15685 3.69181C3.16622 3.69783 3.19735 3.65901 3.26797 3.60613C3.33725 3.55224 3.44602 3.4833 3.5896 3.4167C3.66123 3.38356 3.74155 3.34976 3.82824 3.32399C3.91559 3.29822 4.01198 3.27947 4.11473 3.26876C4.21748 3.25772 4.32726 3.25504 4.44105 3.25839C4.4695 3.25805 4.49795 3.2604 4.52707 3.26207C4.55585 3.26374 4.58497 3.26575 4.61442 3.26742C4.64354 3.27077 4.67299 3.27378 4.70244 3.27713C4.71717 3.2788 4.73223 3.28048 4.74696 3.28182C4.76168 3.28416 4.77674 3.2865 4.79147 3.28884C5.15193 3.34574 5.44713 3.46389 5.44713 3.46389C5.63087 3.53183 5.78416 3.58839 5.96924 3.70486C6.2052 3.85313 6.33472 3.99905 6.34409 3.98968C6.35413 3.97964 6.21591 3.79222 6.00037 3.63157C5.95418 3.59709 5.76943 3.46355 5.49666 3.34407C5.29585 3.25604 5.06257 3.1871 4.81189 3.14961C4.79616 3.14727 4.78076 3.14459 4.76503 3.14225C4.7493 3.14058 4.7339 3.1389 4.71817 3.13723C4.68705 3.13388 4.65626 3.13087 4.62547 3.12752C4.59467 3.12585 4.56422 3.12418 4.53376 3.1225C4.5033 3.12117 4.47318 3.11916 4.44339 3.11983C4.32391 3.11849 4.20844 3.12384 4.09867 3.13924C3.98889 3.1543 3.88547 3.17907 3.79176 3.2122C3.69737 3.246 3.61604 3.28684 3.54375 3.32767C3.39917 3.40933 3.29307 3.49501 3.23048 3.56563C3.16689 3.63558 3.14949 3.68779 3.15685 3.69181Z" fill="url(#paint4_linear_4526_9585)"/>
<path d="M7.93027 4.35885C7.93529 4.35885 7.94165 4.34446 7.94935 4.31836C7.95872 4.29259 7.97278 4.25477 7.99687 4.20858C8.04306 4.11587 8.13041 3.99003 8.25693 3.85147C8.32085 3.78286 8.39348 3.70989 8.47816 3.63894C8.51932 3.60212 8.56517 3.56798 8.61103 3.5315C8.65889 3.4977 8.70675 3.46055 8.75929 3.42775C8.86204 3.3588 8.97617 3.29588 9.098 3.23999C9.12879 3.2266 9.15891 3.21121 9.19071 3.19916C9.2225 3.18677 9.25463 3.17439 9.28676 3.16201C9.31923 3.14996 9.3527 3.14059 9.38583 3.12954C9.40257 3.12452 9.41897 3.1185 9.43603 3.11415C9.4531 3.1098 9.47017 3.10578 9.48758 3.10143C9.55585 3.08235 9.62513 3.07164 9.69274 3.05892C9.72688 3.05424 9.76102 3.05123 9.79449 3.04721C9.81122 3.04554 9.82795 3.04319 9.84469 3.04185C9.86142 3.04118 9.87816 3.04052 9.89489 3.03985C9.92803 3.03884 9.96116 3.0365 9.99396 3.0365C10.0268 3.03784 10.0589 3.03884 10.091 3.04018C10.1071 3.04085 10.1232 3.04085 10.1389 3.04219C10.1546 3.04386 10.1703 3.04587 10.1861 3.04754C10.2172 3.05089 10.2483 3.05457 10.2788 3.05792C10.5218 3.09474 10.7336 3.17104 10.9036 3.25103C11.073 3.33303 11.2045 3.41302 11.2946 3.47026C11.3836 3.52883 11.4365 3.55794 11.4428 3.55025C11.4492 3.54288 11.408 3.49904 11.3274 3.42608C11.246 3.35412 11.1195 3.2594 10.9492 3.16201C10.7781 3.06696 10.5582 2.97592 10.2999 2.9294C10.2674 2.92505 10.2346 2.92036 10.2011 2.91568C10.1844 2.91333 10.1677 2.91099 10.1509 2.90898C10.1342 2.90731 10.1168 2.90664 10.0997 2.90564C10.0656 2.90363 10.0308 2.90195 9.99563 2.89995C9.96049 2.89961 9.92535 2.90128 9.88954 2.90162C9.8718 2.90195 9.85373 2.90262 9.83565 2.90296C9.81758 2.9043 9.79984 2.90631 9.78177 2.90798C9.74562 2.912 9.70914 2.91467 9.67266 2.91969C9.60003 2.93241 9.52607 2.94379 9.4531 2.96421C9.4347 2.96889 9.41662 2.97324 9.39821 2.97793C9.38014 2.98261 9.3624 2.98897 9.34466 2.99466C9.30919 3.00638 9.27371 3.01675 9.23924 3.02981C9.2051 3.04319 9.1713 3.05658 9.13749 3.06997C9.10369 3.08302 9.07189 3.09976 9.03943 3.11415C8.91124 3.17506 8.79243 3.24401 8.68633 3.31931C8.63211 3.35512 8.58325 3.39562 8.53438 3.43311C8.48753 3.47327 8.44134 3.51075 8.39984 3.55125C8.31483 3.62957 8.2432 3.70989 8.18095 3.78587C8.05846 3.93949 7.97947 4.08039 7.94567 4.18682C7.92793 4.23971 7.92157 4.28321 7.9209 4.313C7.92257 4.34379 7.92558 4.35885 7.93027 4.35885Z" fill="url(#paint5_linear_4526_9585)"/>
<path d="M10.1689 8.63086C10.1693 8.63161 10.1701 8.63237 10.1705 8.63312C10.1705 8.63312 10.1701 8.63275 10.1701 8.63237C10.1701 8.63275 10.1693 8.63199 10.1689 8.63086Z" fill="#A32B16"/>
<path d="M8.0695 4.54652C7.9962 3.92132 7.76661 2.69937 6.91114 1.52026C6.46065 0.899078 5.97067 0.475027 5.58577 0.196901C5.56904 0.192215 5.31033 0.125277 5.11052 0.32107C4.90301 0.524226 4.9579 0.814736 4.96091 0.828124C5.23201 1.0604 5.94724 1.7358 6.23373 2.89181C6.42752 3.67398 6.34117 4.33801 6.26754 4.69846C6.8683 4.64793 7.46873 4.59705 8.0695 4.54652Z" fill="url(#paint6_linear_4526_9585)"/>
<path d="M6.5929 1.57839C6.1424 0.957212 5.65242 0.533162 5.26753 0.255035C5.26318 0.253697 5.24209 0.248342 5.20996 0.244325C5.38701 0.144253 5.57076 0.192114 5.58481 0.195795C5.9697 0.473922 6.45969 0.897972 6.91018 1.51915C7.76564 2.6986 7.99524 3.92021 8.06854 4.54541C7.96144 4.55445 7.85434 4.56348 7.74724 4.57252C7.66992 3.93862 7.4343 2.73809 6.5929 1.57839Z" fill="#135D15"/>
<path d="M5.11043 0.320687C5.26004 0.174093 5.44278 0.174763 5.53214 0.186142C5.47926 0.207227 5.42538 0.240027 5.37551 0.289226C5.168 0.492382 5.22289 0.782892 5.2259 0.796614C5.497 1.02855 6.21223 1.70429 6.49872 2.86031C6.6895 3.62975 6.60884 4.28474 6.53621 4.64922L6.27247 4.67499C6.34477 4.30951 6.42342 3.65753 6.23365 2.8921C5.94716 1.73609 5.23193 1.06068 4.96083 0.82841C4.95782 0.814018 4.90326 0.523843 5.11043 0.320687Z" fill="#BF9002"/>
<path d="M5.10361 0.446139C5.10093 0.45049 5.15682 0.489983 5.25756 0.560937C5.3563 0.634569 5.49821 0.742673 5.65785 0.893618C5.8175 1.04423 5.99354 1.23902 6.16591 1.47263C6.33928 1.70557 6.50562 1.97935 6.65489 2.27956C6.72919 2.42984 6.79446 2.58011 6.85369 2.72671C6.91193 2.87364 6.96213 3.01789 7.00665 3.15611C7.09266 3.43391 7.15291 3.68927 7.18771 3.90615C7.22353 4.12303 7.23691 4.30075 7.23892 4.42391C7.24059 4.54675 7.23457 4.61502 7.2406 4.61569C7.24294 4.61603 7.24695 4.59929 7.25231 4.56683C7.25867 4.53436 7.26235 4.4865 7.26637 4.42425C7.27272 4.30008 7.26704 4.11935 7.23691 3.89879C7.2078 3.67823 7.15224 3.41884 7.06857 3.13704C7.02539 2.99647 6.97586 2.85021 6.91796 2.70127C6.85905 2.55267 6.79345 2.40039 6.71815 2.2481C6.56687 1.94421 6.39651 1.66742 6.21812 1.43347C6.04074 1.19852 5.858 1.00473 5.69166 0.856802C5.52565 0.708535 5.37738 0.605451 5.27296 0.538179C5.16686 0.473918 5.10595 0.442123 5.10361 0.446139Z" fill="#44E4E4"/>
<path d="M5.28426 0.26721C5.38768 0.254492 5.46801 0.275243 5.47704 0.277585C5.86193 0.555712 6.35192 0.979763 6.80241 1.60094C7.62641 2.73688 7.8694 3.91164 7.95173 4.55558C7.99056 4.55223 8.02971 4.54888 8.06854 4.54554C7.99524 3.92034 7.76564 2.69839 6.91018 1.51928C6.45969 0.898098 5.9697 0.474048 5.58481 0.195921C5.57076 0.191905 5.38701 0.144379 5.20996 0.244451C5.24209 0.248468 5.26284 0.253823 5.26753 0.255161C5.27288 0.259178 5.27857 0.263194 5.28426 0.26721Z" fill="#44E4E4"/>
<path d="M10.3488 12.0253C11.1082 12.4936 11.6035 12.4701 11.9018 12.3821C13.68 11.8573 14.6214 7.21186 12.791 4.62471C12.5531 4.28835 12.3154 4.0534 12.1866 3.93358C12.0202 3.81778 11.7324 3.6511 11.3448 3.60123C10.5369 3.49748 9.74 4.13305 9.57031 4.27195L10.3488 12.0253Z" fill="url(#paint7_radial_4526_9585)"/>
<path opacity="0.49" d="M10.3488 12.0253C11.1082 12.4936 11.6035 12.4701 11.9018 12.3821C13.68 11.8573 14.6214 7.21186 12.791 4.62471C12.5531 4.28835 12.3154 4.0534 12.1866 3.93358C12.0202 3.81778 11.7324 3.6511 11.3448 3.60123C10.5369 3.49748 9.74 4.13305 9.57031 4.27195L10.3488 12.0253Z" fill="url(#paint8_linear_4526_9585)"/>
<path opacity="0.42" d="M11.3488 12.4189C12.5638 11.1792 12.8539 7.75162 12.2117 6.25724C11.8589 5.43692 11.2541 4.8318 11.2541 4.8318C11.0212 4.59885 10.7986 4.3803 10.4301 4.20827C10.3558 4.17347 10.1644 4.08879 9.89596 4.03223C9.73833 4.13531 9.62353 4.22768 9.57031 4.27119L10.3485 12.0246C10.7538 12.2743 11.0838 12.3844 11.3488 12.4189Z" fill="url(#paint9_linear_4526_9585)"/>
<path d="M7.59375 4.558C7.74771 4.45458 7.99571 4.313 8.32605 4.22565C9.1524 4.00743 9.83315 4.30464 9.99046 4.37793C10.3589 4.54996 10.5815 4.76851 10.8145 5.00146C10.8145 5.00146 11.4196 5.60624 11.772 6.4269C12.5291 8.18803 11.9909 12.6327 10.1715 13.0199C9.90478 13.0768 9.4757 13.0748 8.86389 12.6896L7.59375 4.558Z" fill="url(#paint10_radial_4526_9585)"/>
<path opacity="0.48" d="M9.03458 12.8137C9.03425 12.8137 9.02889 12.81 9.02153 12.8054H9.0212C9.01317 12.8 9.00513 12.7947 8.9971 12.789C8.98974 12.7839 8.98237 12.7789 8.97468 12.7736C8.96765 12.7689 8.96095 12.7639 8.95392 12.7588C8.94455 12.7521 8.93518 12.7451 8.92581 12.7381C8.92046 12.7341 8.91477 12.7301 8.90941 12.7257C8.89435 12.7143 8.87929 12.7023 8.86423 12.6902L7.59375 4.55863C7.71056 4.47362 7.82435 4.40903 7.93112 4.35949C7.95655 4.35916 7.98199 4.35949 8.00809 4.36117C8.00809 4.36117 8.04725 4.36317 8.08608 4.36819C8.13595 4.37455 9.17415 4.65101 9.83349 6.15309C9.84386 6.17685 9.85591 6.20463 9.8693 6.23676C10.4778 7.70471 10.3108 9.95549 10.3108 9.95549C10.1866 11.6283 9.87934 12.3114 10.1916 12.5028C10.4359 12.6524 10.8764 12.3887 11.2348 12.1176C11.1796 12.2448 11.0635 12.4877 10.8104 12.6912C10.624 12.8412 10.4018 12.9506 10.1719 13.0206C10.1719 13.0206 9.61226 13.2167 9.14905 12.8823C9.13968 12.877 9.04161 12.8184 9.03458 12.8137Z" fill="url(#paint11_linear_4526_9585)"/>
<path d="M4.75495 12.1375C4.71345 12.2536 4.64049 12.3915 4.50427 12.4665C3.97245 12.759 2.81242 11.9086 2.15911 11.0052C1.10015 9.54063 1.17847 7.66571 1.20692 6.98495C1.20926 6.92672 1.2116 6.87852 1.21662 6.80891C1.35686 4.87608 2.61228 4.01124 2.61228 4.01124C2.80104 3.88105 3.05875 3.70735 3.44097 3.64308C4.24455 3.50754 4.89419 3.97409 5.06856 4.1083L4.75495 12.1375Z" fill="url(#paint12_linear_4526_9585)"/>
<path d="M3.17628 11.0816C2.30342 11.02 1.78599 9.00518 1.77159 7.65773C1.76992 7.49908 1.77293 5.586 2.90652 4.49124C3.07722 4.32657 3.37509 4.0461 3.85169 3.94268C4.41898 3.81952 4.89089 4.02066 5.06861 4.10802C5.00335 5.77711 4.93808 7.44654 4.87316 9.11563C4.74463 9.4212 4.00196 11.1398 3.17628 11.0816Z" fill="url(#paint13_linear_4526_9585)"/>
<path d="M3.50966 11.908C3.71918 11.6861 3.3209 11.1563 3.0652 10.1542C3.02336 9.99023 2.99089 9.83627 2.96546 9.68901C2.96546 9.68901 2.87442 9.09259 2.8617 8.50053C2.85535 8.20801 2.80447 5.86251 3.8062 4.61211C3.95614 4.42502 4.25635 4.06055 4.69111 4.04046C4.8531 4.03277 4.98631 4.07527 5.06797 4.10874C4.98196 6.31434 4.89561 8.5196 4.80959 10.7252L4.72559 12.2085C4.68141 12.3063 4.61313 12.407 4.50369 12.4673C4.17536 12.648 3.60739 12.3926 3.0672 11.9582C3.24927 11.9997 3.41662 12.0067 3.50966 11.908Z" fill="url(#paint14_linear_4526_9585)"/>
<path d="M7.00386 4.83592C6.97206 4.72113 6.78229 4.4835 6.60524 4.34661C6.30068 4.11132 5.81437 4.1304 5.40338 4.41087C5.29895 4.21374 5.18516 4.13308 5.0968 4.10965C3.42537 3.66317 3.09804 7.69115 3.12448 8.37559C3.15393 9.13734 3.23995 11.2783 4.56565 12.5595C5.10283 13.079 5.5503 13.156 5.70962 13.175C6.35255 13.2517 6.86095 12.9233 7.03833 12.7962C6.98846 10.127 7.05406 7.5054 7.00386 4.83592Z" fill="url(#paint15_radial_4526_9585)"/>
<path opacity="0.55" d="M6.60568 4.34666C6.78273 4.48321 6.9725 4.72117 7.00429 4.83597C7.04278 6.89196 7.013 8.91951 7.02002 10.9624C6.5538 11.6044 5.87907 12.2018 5.32215 12.0746C4.09752 11.7952 3.2521 7.97301 4.72339 5.35675C4.95031 4.95345 5.19764 4.63984 5.40415 4.41058C5.81481 4.13045 6.30078 4.11137 6.60568 4.34666Z" fill="url(#paint16_linear_4526_9585)"/>
<path d="M6.20844 12.5299C6.43703 12.2387 6.23789 11.8103 6.07757 11.1941C5.92462 10.6061 5.89115 10.17 5.83526 9.44872C5.78539 8.80344 5.82053 8.31547 5.85066 7.91786C6.03808 5.45087 6.83765 4.90399 6.87648 4.88223C6.90258 4.86751 6.99027 4.81831 7.00399 4.83571C7.00433 4.83604 7.00433 4.83638 7.00466 4.83671C7.04215 6.83681 7.0147 8.81014 7.01972 10.7969C7.02006 10.9424 7.02073 11.0884 7.0214 11.2343C7.0214 11.255 7.0214 11.2755 7.02173 11.2962C7.0224 11.4321 7.02374 11.5683 7.02474 11.7045C7.02508 11.735 7.02508 11.7654 7.02541 11.7959C7.02675 11.9291 7.02843 12.0623 7.0301 12.1958C7.03043 12.2293 7.03077 12.2628 7.0311 12.2963C7.03345 12.4629 7.14958 12.557 7.15293 12.7243C7.1449 12.73 7.0224 12.8093 7.0127 12.816C7.01136 12.817 7.01002 12.818 7.00868 12.819C6.80853 12.9579 6.31989 13.2491 5.71042 13.1765C5.55111 13.1574 5.10363 13.0804 4.56645 12.561C4.45869 12.4569 4.35962 12.3471 4.26758 12.233C4.3392 12.2979 5.15852 13.0219 5.91157 12.7227C5.99591 12.6885 6.1174 12.6463 6.20844 12.5299Z" fill="#A00704"/>
<path d="M9.79201 8.63435C9.79201 8.63 9.79168 8.62531 9.79168 8.62096C9.79101 8.5972 9.79067 8.57344 9.79 8.55034C9.78933 8.51554 9.78833 8.48173 9.78766 8.4486C9.78364 8.28494 9.76557 6.98601 9.22371 5.83669C9.08314 5.53881 8.93855 5.31625 8.79029 5.15091C8.50379 4.76501 8.15204 4.36071 7.6905 4.29578C7.20587 4.2275 6.78383 4.55952 6.63489 4.67666C6.45818 4.81555 5.85607 5.33599 5.63417 7.78759C5.55117 8.70597 5.49394 9.35226 5.62714 10.2499C5.76905 11.2048 5.93874 12.3481 6.85512 12.9344C6.99702 13.0251 7.4937 13.3434 8.04761 13.2239C8.38732 13.1506 8.65273 12.9334 8.90073 12.6098C9.80573 11.4287 9.8151 9.69565 9.79201 8.63435Z" fill="url(#paint17_radial_4526_9585)"/>
<path opacity="0.31" d="M7.65767 12.9344C6.7413 12.3477 6.57161 11.2048 6.4297 10.2499C6.29649 9.35192 6.35373 8.70597 6.43673 7.78759C6.65863 5.33566 7.26073 4.81555 7.43745 4.67666C7.52581 4.60704 7.71089 4.46179 7.94785 4.36941C7.86618 4.33393 7.78084 4.3085 7.69148 4.29578C7.20685 4.2275 6.7848 4.55952 6.63587 4.67666C6.45915 4.81555 5.85705 5.33599 5.63515 7.78759C5.55215 8.70597 5.49491 9.35226 5.62812 10.2499C5.77003 11.2048 5.93972 12.3481 6.85609 12.9344C6.998 13.0251 7.49468 13.3434 8.04859 13.2239C8.09478 13.2139 8.13963 13.2012 8.18347 13.1858C7.93044 13.1091 7.73766 12.9856 7.65767 12.9344Z" fill="url(#paint18_radial_4526_9585)"/>
<path d="M6.74736 12.973C6.74536 12.9683 6.70319 12.9814 6.62386 13.0075C6.54454 13.0322 6.42673 13.0684 6.27244 13.0968C6.23395 13.1052 6.19279 13.1089 6.14995 13.1159C6.10677 13.1196 6.06159 13.126 6.01406 13.1273C5.91934 13.1323 5.81593 13.1316 5.70615 13.1183C5.5967 13.1052 5.48057 13.0811 5.36242 13.0416C5.24394 13.0018 5.12345 12.9469 5.00431 12.8763C4.76567 12.735 4.53641 12.5272 4.33325 12.2695C4.23151 12.1406 4.13646 11.9991 4.04743 11.8481C3.95941 11.6965 3.87674 11.5352 3.8021 11.3652C3.50423 10.6851 3.31279 9.8758 3.26392 9.01832C3.23581 8.15817 3.26694 7.33116 3.37772 6.59384C3.38809 6.5008 3.40851 6.4111 3.42491 6.32174C3.44265 6.23271 3.45704 6.14402 3.47679 6.05834C3.5213 5.88798 3.55644 5.71963 3.611 5.56367C3.65685 5.40469 3.71843 5.25743 3.77499 5.11518C3.80779 5.04624 3.83959 4.9783 3.87105 4.91236C3.90485 4.84743 3.94167 4.78618 3.97547 4.72527C3.9835 4.70988 3.99321 4.69548 4.00292 4.68109C4.01262 4.6667 4.02199 4.65264 4.03137 4.63859C4.05044 4.61047 4.06918 4.58236 4.08759 4.55492C4.10734 4.52847 4.12809 4.50337 4.14784 4.47827C4.16792 4.45317 4.18666 4.4274 4.20875 4.40564C4.22984 4.38288 4.25092 4.36046 4.27167 4.33837C4.29376 4.31829 4.31552 4.29821 4.33727 4.2788C4.35903 4.25938 4.38212 4.24399 4.40387 4.22692C4.41492 4.21989 4.42596 4.2132 4.43701 4.2065C4.44939 4.20048 4.46178 4.19446 4.47382 4.18877C4.57155 4.14224 4.67129 4.11681 4.76366 4.1061C4.85604 4.09539 4.94205 4.10074 5.01602 4.11748C5.09099 4.13321 5.1519 4.16467 5.2011 4.19613C5.21315 4.2045 5.22487 4.21286 5.23591 4.22056C5.24729 4.22792 5.25566 4.2383 5.26536 4.24633C5.27473 4.2547 5.28344 4.26273 5.2918 4.27043C5.29984 4.27846 5.3062 4.28716 5.31322 4.29486C5.32594 4.31059 5.33933 4.32331 5.34803 4.33636C5.35673 4.34942 5.36443 4.36013 5.37079 4.36883C5.38351 4.3859 5.39121 4.3946 5.39321 4.39326C5.39556 4.39226 5.39221 4.38155 5.38351 4.36147C5.37916 4.35142 5.37347 4.33904 5.36644 4.32465C5.35941 4.30992 5.3477 4.2952 5.33598 4.27712C5.32962 4.26842 5.32393 4.25838 5.31624 4.24934C5.3082 4.24031 5.2995 4.23094 5.29046 4.22123C5.28109 4.21186 5.27273 4.20014 5.26135 4.19111C5.24997 4.18174 5.23825 4.17203 5.2262 4.16199C5.17567 4.12417 5.11074 4.08568 5.03041 4.06426C4.87143 4.01908 4.65857 4.02443 4.44203 4.11681C4.42864 4.12283 4.41492 4.12886 4.4012 4.13488C4.38747 4.14258 4.37375 4.15061 4.35969 4.15864C4.33493 4.17672 4.30815 4.19345 4.28439 4.21353C4.26063 4.23395 4.23619 4.25403 4.2121 4.27545C4.18967 4.29821 4.16691 4.3213 4.14349 4.34473C4.11939 4.36749 4.09931 4.39393 4.07755 4.41937C4.05613 4.44547 4.03371 4.47124 4.01229 4.49835C3.99221 4.52647 3.97213 4.55491 3.95171 4.58403C3.94167 4.59842 3.93129 4.61315 3.92092 4.62754C3.91054 4.64193 3.90017 4.65699 3.89147 4.67273C3.85498 4.73498 3.81549 4.7979 3.77934 4.86417C3.74588 4.93177 3.7114 5.00072 3.67626 5.07134C3.61535 5.21626 3.54975 5.36654 3.50055 5.52786C3.44231 5.68683 3.40382 5.85719 3.35663 6.03056C3.33555 6.11791 3.31982 6.20761 3.30074 6.29797C3.283 6.38867 3.26158 6.47971 3.2502 6.57376C3.22443 6.76118 3.19029 6.95263 3.1759 7.14976C3.16686 7.24816 3.15749 7.34789 3.14812 7.4483C3.14243 7.4985 3.14109 7.54904 3.13875 7.59991C3.13641 7.65079 3.13406 7.70199 3.13172 7.7532C3.12704 7.85595 3.12235 7.95937 3.11733 8.06379C3.11398 8.16821 3.11599 8.27364 3.11499 8.3794C3.11532 8.59126 3.10997 8.80647 3.12402 9.02569C3.14812 9.46313 3.21171 9.88718 3.30609 10.2891C3.40081 10.6911 3.52766 11.071 3.68429 11.4177C3.76228 11.5911 3.84896 11.7557 3.94133 11.911C4.03505 12.0653 4.13512 12.2103 4.24255 12.3421C4.45709 12.6059 4.70041 12.819 4.95477 12.962C5.08162 13.0336 5.21014 13.0881 5.33565 13.1266C5.46116 13.1648 5.58399 13.1865 5.69878 13.1962C5.81392 13.2063 5.92135 13.2033 6.01942 13.1939C6.06862 13.1906 6.1148 13.1819 6.15932 13.1758C6.20316 13.1668 6.24533 13.1604 6.28416 13.1501C6.44079 13.1126 6.55726 13.0671 6.63424 13.0333C6.71088 12.9991 6.74937 12.9774 6.74736 12.973Z" fill="url(#paint19_linear_4526_9585)"/>
<path d="M4.39002 12.5104C4.38968 12.5081 4.3783 12.5061 4.35655 12.5047C4.34584 12.5044 4.33212 12.5037 4.31605 12.5027C4.29999 12.501 4.28158 12.4987 4.26049 12.4963C4.17682 12.4853 4.05399 12.4595 3.90572 12.3976C3.60785 12.2771 3.20957 12.0187 2.79355 11.6178C2.58605 11.4173 2.37318 11.1814 2.17605 10.9066C2.07765 10.769 1.98427 10.6211 1.90295 10.4621C1.82362 10.3011 1.74765 10.1314 1.68406 9.95205C1.64959 9.86335 1.62248 9.77065 1.59202 9.67827C1.56558 9.58456 1.5368 9.49018 1.51437 9.39278C1.48894 9.29639 1.46986 9.19732 1.44844 9.09792C1.4307 8.99751 1.41095 8.89677 1.3969 8.79369C1.33498 8.38302 1.30988 7.95195 1.30921 7.51016C1.31055 7.06837 1.32828 6.63595 1.41664 6.23399C1.43873 6.13358 1.46484 6.03552 1.49563 5.93946C1.52742 5.8414 1.55755 5.74434 1.59001 5.64996C1.62214 5.55558 1.65661 5.46421 1.69544 5.37618C1.71485 5.332 1.73527 5.28916 1.75702 5.24632C1.77878 5.20315 1.80087 5.16064 1.82329 5.11881C2.00302 4.78311 2.20718 4.48189 2.44313 4.2436C2.50237 4.18469 2.56295 4.1288 2.62554 4.07859C2.68812 4.02873 2.75205 3.98354 2.81865 3.94472C2.95153 3.86674 3.08942 3.80884 3.22597 3.76901C3.36219 3.72784 3.4964 3.70475 3.62425 3.6927C3.75243 3.68065 3.87426 3.68098 3.98739 3.69002C4.21397 3.70843 4.40575 3.7593 4.55468 3.81821C4.70496 3.87577 4.81239 3.94137 4.88435 3.98655C4.90243 3.99827 4.91816 4.00831 4.93154 4.01701C4.94493 4.02638 4.95598 4.03408 4.96535 4.03977C4.98376 4.05182 4.99413 4.05684 4.9958 4.05517C4.99748 4.05349 4.99011 4.04446 4.97438 4.02873C4.96669 4.02103 4.95665 4.01132 4.9446 3.99994C4.93221 3.9889 4.91749 3.97718 4.90075 3.96313C4.83281 3.90958 4.72738 3.83494 4.57577 3.76733C4.42549 3.69839 4.22903 3.63781 3.99475 3.61137C3.87761 3.59798 3.75076 3.59397 3.61722 3.603C3.48368 3.61204 3.34244 3.63279 3.19853 3.67295C3.05427 3.71211 2.90735 3.77001 2.76443 3.85034C2.69281 3.89016 2.6232 3.93769 2.55559 3.9899C2.48832 4.04178 2.42406 4.09968 2.3608 4.16026C2.11012 4.40625 1.89592 4.71517 1.70916 5.05689C1.68573 5.09973 1.66264 5.1429 1.64021 5.18675C1.61746 5.23059 1.59503 5.27611 1.57462 5.3223C1.53311 5.41434 1.4963 5.50972 1.46283 5.60611C1.42903 5.7025 1.3979 5.7999 1.36577 5.89729C1.33297 5.99703 1.30486 6.09978 1.28143 6.2042C1.18738 6.62256 1.16931 7.06402 1.16797 7.51016C1.16864 7.95764 1.19508 8.39574 1.26001 8.81444C1.27473 8.9192 1.29515 9.02228 1.31423 9.1247C1.33665 9.22644 1.35673 9.32718 1.38351 9.42592C1.40727 9.52498 1.43739 9.62171 1.46517 9.71743C1.4973 9.81215 1.52575 9.90653 1.5619 9.99723C1.62884 10.1806 1.70849 10.3537 1.7925 10.519C1.87918 10.6843 1.97792 10.8356 2.081 10.9752C2.2875 11.2547 2.50873 11.4906 2.72461 11.6904C3.15702 12.0894 3.57237 12.3407 3.88564 12.4492C4.04161 12.5051 4.17113 12.5231 4.25782 12.5251C4.27957 12.5248 4.29865 12.5248 4.31538 12.5245C4.33178 12.5228 4.34584 12.5208 4.35688 12.5194C4.37931 12.5158 4.39035 12.5131 4.39002 12.5104Z" fill="url(#paint20_linear_4526_9585)"/>
<path d="M8.84619 12.679C8.84184 12.6841 8.87297 12.7212 8.94158 12.7831C8.95932 12.7979 8.9794 12.8146 9.00116 12.8327C9.02324 12.8507 9.04969 12.8678 9.07713 12.8876C9.13302 12.9264 9.20163 12.9652 9.28229 13.0037C9.36396 13.0395 9.45834 13.073 9.56611 13.0941C9.67355 13.1151 9.79437 13.1232 9.92255 13.1111C10.1796 13.089 10.4611 12.9813 10.7231 12.7969C10.7887 12.7507 10.8533 12.7001 10.9162 12.6442C10.9792 12.588 11.0404 12.5288 11.0986 12.4578C11.2098 12.3176 11.3011 12.165 11.3918 12.0033C11.5702 11.6797 11.7302 11.3192 11.8704 10.9296C12.0097 10.5397 12.1285 10.12 12.2098 9.67589C12.2922 9.23209 12.336 8.76319 12.3233 8.28224C12.3102 7.80163 12.2359 7.33273 12.1034 6.8973C11.9715 6.46153 11.7794 6.06125 11.5495 5.71217C11.4347 5.53746 11.3115 5.3748 11.1827 5.22486C11.0531 5.07559 10.9186 4.9387 10.783 4.81252C10.7134 4.75161 10.6472 4.68936 10.5772 4.6338C10.5424 4.60568 10.5093 4.57724 10.4741 4.54979C10.4373 4.52335 10.4008 4.49725 10.3647 4.47147C10.2157 4.37542 10.0621 4.30513 9.91218 4.25058C9.60995 4.1475 9.32346 4.107 9.07278 4.09897C8.82176 4.09127 8.60589 4.11838 8.43419 4.1572C8.41277 4.16189 8.39169 4.16624 8.37161 4.17059C8.35152 4.17628 8.33211 4.18197 8.31337 4.18766C8.27588 4.19904 8.24074 4.20874 8.20895 4.21945C8.14569 4.24456 8.09214 4.2643 8.05064 4.28438C7.96831 4.32756 7.92781 4.35299 7.93082 4.35935C7.93417 4.36605 7.98102 4.35333 8.06604 4.32421C8.10921 4.31082 8.16376 4.29811 8.22669 4.2797C8.25882 4.273 8.29362 4.26598 8.33044 4.25828C8.34885 4.2546 8.36792 4.25058 8.38767 4.24656C8.40775 4.24389 8.42817 4.24121 8.44925 4.2382C8.61727 4.2131 8.82645 4.19904 9.06675 4.21711C9.30673 4.23552 9.57916 4.28505 9.8603 4.39081C9.99953 4.44671 10.1401 4.51599 10.2733 4.60669C10.3054 4.63079 10.3376 4.65522 10.37 4.67965C10.4025 4.70609 10.4346 4.73487 10.4674 4.76299C10.534 4.81821 10.5966 4.88013 10.6629 4.94037C10.7911 5.06521 10.9183 5.19942 11.0404 5.34501C11.1616 5.49127 11.2777 5.64924 11.3855 5.81793C11.601 6.15529 11.7807 6.53918 11.9046 6.95687C12.0287 7.37457 12.0987 7.82439 12.1114 8.28827C12.1238 8.75214 12.083 9.20665 12.0057 9.63873C11.9293 10.0715 11.8172 10.4822 11.6864 10.8647C11.5542 11.2469 11.4036 11.6024 11.2372 11.9196C11.1535 12.0773 11.0665 12.2289 10.9708 12.3561C10.9236 12.417 10.8674 12.4752 10.8108 12.5284C10.7539 12.5817 10.695 12.6309 10.6354 12.6757C10.3965 12.8548 10.1418 12.9625 9.90917 12.9937C9.79303 13.0101 9.68258 13.0087 9.58251 12.9947C9.48244 12.9809 9.39274 12.9555 9.31342 12.9277C9.15612 12.8678 9.04266 12.7979 8.96668 12.7493C8.89205 12.6998 8.85155 12.6734 8.84619 12.679Z" fill="url(#paint21_linear_4526_9585)"/>
<path d="M11.1563 12.3831C11.1553 12.3864 11.1653 12.3931 11.1858 12.4021C11.2065 12.4112 11.2376 12.4246 11.2801 12.4359C11.3645 12.4607 11.4943 12.4885 11.665 12.4821C11.75 12.4784 11.8451 12.4644 11.9455 12.4353C12.0459 12.4065 12.1513 12.3616 12.2564 12.3001C12.4666 12.1762 12.6711 11.9831 12.8502 11.7401C13.0306 11.4975 13.1892 11.2066 13.3261 10.8827C13.4633 10.5587 13.5791 10.2009 13.6732 9.81801C13.7669 9.43512 13.8395 9.02714 13.8797 8.59907C13.8991 8.38554 13.9105 8.16431 13.9041 7.94174C13.9001 7.72051 13.888 7.4956 13.8669 7.26902C13.8241 6.81585 13.7461 6.3754 13.6256 5.96072C13.5058 5.54638 13.3415 5.15747 13.1296 4.81776C12.9184 4.47805 12.6584 4.18854 12.3699 3.97568C12.2256 3.86925 12.0757 3.7819 11.9257 3.71027C11.8879 3.69354 11.8501 3.67714 11.813 3.66074C11.7758 3.644 11.7373 3.63196 11.7005 3.6179C11.6818 3.61121 11.6634 3.60418 11.6449 3.59748C11.6265 3.59079 11.6058 3.58577 11.5864 3.57974C11.5666 3.57339 11.5472 3.5697 11.5275 3.56569C11.5081 3.56167 11.4886 3.55665 11.4692 3.55431C11.3149 3.52988 11.1677 3.53188 11.0311 3.54628C10.9625 3.5523 10.8973 3.56569 10.834 3.57707C10.7714 3.59213 10.7105 3.60485 10.6533 3.62392C10.423 3.6932 10.2382 3.78625 10.0943 3.87025C10.0585 3.89201 10.0251 3.91242 9.99326 3.93184C9.96213 3.95192 9.93435 3.97233 9.90791 3.99074C9.88181 4.00949 9.85771 4.02655 9.83562 4.04228C9.8142 4.05868 9.79546 4.07475 9.77872 4.08847C9.71145 4.1447 9.67865 4.17683 9.683 4.18252C9.68735 4.18821 9.72885 4.16779 9.80315 4.12328C9.82156 4.11223 9.84231 4.09985 9.86507 4.08613C9.8885 4.07341 9.91394 4.05935 9.94138 4.04396C9.96882 4.0289 9.99794 4.01149 10.0301 3.99442C10.0622 3.97836 10.0967 3.96095 10.1332 3.94288C10.2794 3.87193 10.4625 3.79328 10.6844 3.73805C10.7393 3.72266 10.7975 3.71329 10.8571 3.70157C10.917 3.69354 10.9789 3.6835 11.0428 3.68049C11.1704 3.67178 11.3062 3.67547 11.4425 3.70157C11.4599 3.70391 11.4763 3.70927 11.493 3.71295C11.5097 3.7173 11.5271 3.72065 11.5432 3.72667C11.5596 3.73236 11.5757 3.73638 11.5931 3.74341C11.6101 3.75044 11.6275 3.75713 11.6449 3.76416C11.6794 3.77855 11.7152 3.79093 11.7497 3.80733C11.7842 3.82373 11.819 3.84013 11.8541 3.85687C11.9927 3.92782 12.1309 4.01317 12.2635 4.11525C12.5285 4.32008 12.7675 4.59486 12.9629 4.9195C13.1591 5.24415 13.313 5.61733 13.4258 6.01795C13.5393 6.41891 13.6139 6.84664 13.6558 7.28876C13.6765 7.50999 13.6886 7.72922 13.6932 7.94576C13.6999 8.1613 13.6899 8.37182 13.6728 8.58066C13.6367 8.99735 13.5697 9.39764 13.4834 9.77282C13.3964 10.148 13.2896 10.4991 13.1634 10.816C13.0376 11.133 12.8923 11.4168 12.7283 11.6528C12.5653 11.8894 12.3813 12.0758 12.1935 12.1993C12.0054 12.3235 11.816 12.3807 11.658 12.3998C11.4994 12.4179 11.3732 12.4045 11.2885 12.3938C11.2457 12.3891 11.2135 12.3831 11.1911 12.3807C11.1694 12.379 11.1573 12.3794 11.1563 12.3831Z" fill="url(#paint22_linear_4526_9585)"/>
<path d="M11.4686 7.01035C11.4646 6.8574 11.4338 6.26768 11.0382 5.71076C10.9415 5.57454 10.6837 5.21174 10.2865 5.07518C9.76436 4.89546 9.42398 5.25157 9.37913 5.30043C8.91659 5.80514 9.18568 6.76135 9.22249 6.89254C9.30516 7.1864 9.42599 7.41801 9.51401 7.5656C9.73725 7.50101 9.96048 7.43641 10.1841 7.37148C9.94676 6.9809 9.98358 6.55016 10.1958 6.41327C10.3484 6.31521 10.5907 6.36842 10.7758 6.54949C10.9769 6.74562 11.0218 7.00467 11.0285 7.04684C11.1751 7.03479 11.322 7.0224 11.4686 7.01035Z" fill="url(#paint23_radial_4526_9585)"/>
<path d="M10.3687 6.34961C10.3094 6.35296 10.0832 6.37304 9.93526 6.57954C9.77829 6.79876 9.7726 7.14014 9.92087 7.44739C10.0086 7.42195 10.0962 7.39652 10.1839 7.37141C10.1461 7.31485 10.0875 7.21344 10.0557 7.07655C10.0393 7.00627 9.99416 6.79876 10.0889 6.60263C10.1739 6.42659 10.3202 6.36668 10.3687 6.34961Z" fill="#F83001"/>
<path d="M11.0378 5.71076C10.9411 5.57454 10.6834 5.21174 10.2861 5.07518C9.76401 4.89546 9.42363 5.25157 9.37879 5.30043C9.25395 5.43698 9.18266 5.60634 9.14551 5.78339C9.17295 5.73921 9.20408 5.69704 9.23989 5.65788C9.28474 5.60901 9.62512 5.2529 10.1472 5.43263C10.5445 5.56919 10.8022 5.93199 10.8989 6.06821C11.1426 6.41126 11.2477 6.7667 11.2935 7.02475C11.3518 7.01973 11.41 7.01504 11.4682 7.01002C11.4642 6.8574 11.4334 6.26768 11.0378 5.71076Z" fill="url(#paint24_linear_4526_9585)"/>
<path d="M9.54073 7.57619C9.40852 7.38408 9.14111 6.94229 9.10061 6.36127C9.08354 6.11628 9.05509 5.70796 9.30042 5.38297C9.3359 5.33578 9.56717 5.04025 9.9775 5.0282C10.4484 5.01448 10.8015 5.38465 10.9153 5.50413C11.4933 6.11059 11.499 6.96873 11.4823 6.97208C11.4638 6.97576 11.3895 5.95328 10.7486 5.41845C10.4631 5.18015 10.1572 5.11589 9.96846 5.09514C9.66824 5.11422 9.50525 5.23772 9.42359 5.31972C9.02798 5.71699 9.04773 6.6404 9.54073 7.57619Z" fill="#FEFFBF"/>
<path d="M10.183 7.37111C10.1914 7.36675 9.99992 7.09833 10.0197 6.78172C10.024 6.71076 10.0354 6.56216 10.1402 6.45707C10.2794 6.31784 10.4772 6.36202 10.5097 6.36972C10.4956 6.3647 10.2111 6.2673 10.0568 6.45372C9.95039 6.58258 9.97047 6.76833 9.98252 6.8771C10.014 7.16628 10.1756 7.37512 10.183 7.37111Z" fill="#FEFFBF"/>
<path d="M8.04747 7.15039L8.91364 8.5109L7.28906 8.55709L8.04747 7.15039Z" fill="url(#paint25_radial_4526_9585)"/>
<path d="M8.05985 7.72472L8.5669 8.52094L8.91364 8.5109L8.04747 7.15039L7.28906 8.55709L7.61605 8.54805L8.05985 7.72472Z" fill="url(#paint26_linear_4526_9585)"/>
<path d="M10.7858 8.42822C10.4977 8.84257 10.0629 9.33489 9.43001 9.7064C9.29948 9.78304 9.17096 9.84831 9.04612 9.9042C9.02537 10.1251 9.00496 10.346 8.98421 10.5669C8.57522 10.6101 8.16623 10.6529 7.75724 10.6961C7.68662 10.4012 7.616 10.1064 7.54571 9.81149C7.30775 9.79208 7.04435 9.75158 6.76221 9.67661C5.85219 9.43564 5.17813 8.95368 4.75977 8.5882C4.85482 8.95268 5.05295 9.53972 5.48403 10.1371C5.69455 10.4287 6.06974 10.9488 6.72941 11.2898C6.95231 11.4049 8.01662 11.9184 9.15289 11.3849C10.1653 10.9096 10.5328 9.93968 10.6192 9.68732C10.7942 9.17458 10.8022 8.71271 10.7858 8.42822Z" fill="url(#paint27_radial_4526_9585)"/>
<path d="M6.80672 9.96612C7.08886 10.0408 7.3526 10.0816 7.59023 10.101C7.66085 10.3959 7.73147 10.6907 7.80175 10.9856C8.21074 10.9424 8.61973 10.8996 9.02872 10.8564C9.04947 10.6355 9.06989 10.4146 9.09064 10.1937C9.21548 10.1378 9.344 10.0725 9.47453 9.9959C10.0776 9.6418 10.5003 9.17859 10.7882 8.7773C10.7939 8.64376 10.7915 8.52562 10.7858 8.42822C10.4977 8.84257 10.0629 9.33489 9.43001 9.7064C9.29948 9.78304 9.17096 9.84831 9.04612 9.9042C9.02537 10.1251 9.00496 10.346 8.98421 10.5669C8.57522 10.6101 8.16623 10.6529 7.75724 10.6961C7.68662 10.4012 7.616 10.1064 7.54572 9.81149C7.30775 9.79208 7.04435 9.75158 6.76221 9.67661C5.85219 9.43564 5.17813 8.95368 4.75977 8.5882C4.7852 8.68627 4.81834 8.80073 4.86151 8.92691C5.28288 9.28536 5.93687 9.73585 6.80672 9.96612Z" fill="url(#paint28_linear_4526_9585)"/>
<path d="M10.7858 8.42822C10.7832 8.43224 10.7801 8.43625 10.7771 8.44027C10.7714 8.71036 10.7326 9.05509 10.6058 9.42693C10.5194 9.67929 10.1519 10.6496 9.1395 11.1245C8.00323 11.6576 6.93892 11.1446 6.71602 11.0294C6.05602 10.6884 5.68083 10.1683 5.47064 9.87676C5.15436 9.43831 4.96359 9.0059 4.84678 8.6625C4.81666 8.6374 4.78754 8.6123 4.75977 8.5882C4.85482 8.95268 5.05295 9.53972 5.48403 10.1371C5.69455 10.4287 6.06974 10.9488 6.72941 11.2898C6.95231 11.4049 8.01662 11.9184 9.15289 11.3849C10.1653 10.9096 10.5328 9.93968 10.6192 9.68732C10.7942 9.17458 10.8022 8.71271 10.7858 8.42822Z" fill="url(#paint29_linear_4526_9585)"/>
<path d="M4.30279 7.14515C4.29576 6.99052 4.28606 6.39511 4.67463 5.82848C4.76968 5.68959 5.02271 5.32042 5.44441 5.17785C5.99832 4.99009 6.39393 5.34553 6.44614 5.39439C6.98532 5.89843 6.76342 6.86669 6.73297 6.99956C6.66469 7.29709 6.55056 7.53238 6.46555 7.68232C6.21821 7.61974 5.97121 7.55715 5.72388 7.49456C5.95314 7.09729 5.88152 6.66319 5.64088 6.52765C5.46818 6.43025 5.20913 6.48715 5.02103 6.6719C4.81721 6.87238 4.78742 7.1341 4.78307 7.17694C4.62309 7.16623 4.46311 7.15552 4.30279 7.14515Z" fill="url(#paint30_radial_4526_9585)"/>
<path d="M5.44922 6.46436C5.51381 6.4667 5.76081 6.48444 5.93653 6.69127C6.12295 6.9105 6.15407 7.25489 6.01585 7.56716C5.91879 7.54272 5.82173 7.51796 5.72467 7.49352C5.76148 7.43596 5.81771 7.33287 5.84214 7.19431C5.85486 7.12302 5.88867 6.91317 5.77119 6.71638C5.6661 6.54 5.5031 6.48109 5.44922 6.46436Z" fill="#F83001"/>
<path d="M4.67562 5.82799C4.77067 5.6891 5.0237 5.31994 5.44541 5.17736C5.99932 4.9896 6.39492 5.34504 6.44713 5.3939C6.59272 5.53012 6.68242 5.70014 6.73597 5.87853C6.70283 5.83435 6.66602 5.79218 6.62418 5.75302C6.57197 5.70416 6.17637 5.34872 5.62246 5.53648C5.20108 5.67939 4.94806 6.04822 4.85267 6.18711C4.61337 6.53619 4.52501 6.89632 4.49422 7.15738C4.43063 7.15303 4.36704 7.14901 4.30378 7.14466C4.29676 6.99037 4.28671 6.39496 4.67562 5.82799Z" fill="url(#paint31_linear_4526_9585)"/>
<path d="M6.43795 7.69348C6.56747 7.49769 6.82552 7.04887 6.82686 6.46183C6.82753 6.21449 6.8282 5.80182 6.53836 5.47684C6.49619 5.42965 6.22375 5.13412 5.77727 5.12709C5.26487 5.11872 4.90876 5.49692 4.79396 5.61875C4.21093 6.23792 4.26749 7.1041 4.2859 7.10711C4.30598 7.11045 4.31201 6.07761 4.96867 5.53005C5.26118 5.28607 5.58851 5.21746 5.792 5.19436C6.11933 5.20976 6.30541 5.33259 6.3998 5.41425C6.85832 5.81086 6.90451 6.74297 6.43795 7.69348Z" fill="#FEFFBF"/>
<path d="M5.72494 7.49349C5.71524 7.48914 5.90367 7.21603 5.85915 6.89674C5.84911 6.82512 5.82602 6.67518 5.70453 6.57075C5.54321 6.43186 5.33168 6.47872 5.29688 6.48708C5.31194 6.48173 5.61349 6.37998 5.79456 6.5664C5.9194 6.69492 5.91103 6.88268 5.90634 6.99313C5.89362 7.28465 5.73331 7.49717 5.72494 7.49349Z" fill="#FEFFBF"/>
<path d="M7.28906 8.55689L8.04747 7.14986L8.91364 8.5107C8.61577 7.9983 8.3179 7.48555 8.02002 6.97314C7.77637 7.50128 7.53272 8.02909 7.28906 8.55689Z" fill="#FEFFBF"/>
<path d="M4.78618 8.63946C4.79086 8.63745 5.12388 10.0518 6.33846 10.9819C7.07946 11.5496 7.74014 11.6242 7.90481 11.6389C8.46574 11.6891 8.89348 11.5469 9.01095 11.5054C9.14817 11.4565 9.6154 11.2848 9.99828 10.8668C10.8122 9.97822 10.8025 8.49521 10.7885 8.4922C10.7871 8.49186 10.7888 8.5009 10.7888 8.5009C10.6178 9.85974 10.3253 10.3246 10.3253 10.3246C10.1462 10.6088 9.91528 10.84 9.91528 10.84C9.7466 11.0064 9.44237 11.2621 8.96677 11.4495C8.79776 11.4987 8.56147 11.5506 8.27631 11.561C8.17959 11.5643 7.80005 11.5733 7.35324 11.4418C6.6775 11.243 6.24241 10.8397 6.00478 10.6145C5.05092 9.7108 4.78216 8.64113 4.78618 8.63946Z" fill="#FEFFBF"/>
<path d="M4.75879 8.58805C5.14368 8.91437 5.5028 9.12891 5.77022 9.26713C5.95062 9.36051 6.18624 9.48033 6.51624 9.57906C6.94799 9.70792 7.32451 9.73469 7.58524 9.73503C7.65385 10.0486 7.72246 10.3622 7.7914 10.6758C8.17362 10.6293 8.55617 10.5831 8.93838 10.5366C8.94775 10.3107 8.95712 10.0848 8.96683 9.85886C9.19844 9.78289 9.4933 9.65872 9.80154 9.45088C10.3119 9.10648 10.6189 8.69482 10.7852 8.42773C10.6299 8.69047 10.3514 9.08439 9.89057 9.43414C9.57362 9.67445 9.26705 9.82104 9.03076 9.91108C9.01302 10.1363 8.99528 10.3616 8.97721 10.5865C8.57089 10.6273 8.16425 10.6681 7.75794 10.709C7.68732 10.4047 7.61703 10.1002 7.54641 9.79594C7.15616 9.79126 6.43658 9.727 5.68119 9.30596C5.26885 9.07603 4.9663 8.80694 4.75879 8.58805Z" fill="#FEFFBF"/>
<defs>
<linearGradient id="paint0_linear_4526_9585" x1="4.82245" y1="4.19636" x2="9.59105" y2="4.19636" gradientUnits="userSpaceOnUse">
<stop offset="0.0838" stop-color="#FE6501"/>
<stop offset="0.4786" stop-color="#F83405"/>
<stop offset="1" stop-color="#A00704"/>
</linearGradient>
<linearGradient id="paint1_linear_4526_9585" x1="2.95301" y1="4.01505" x2="6.9955" y2="4.01505" gradientUnits="userSpaceOnUse">
<stop offset="0.0838" stop-color="#FE6501"/>
<stop offset="0.4786" stop-color="#F83405"/>
<stop offset="1" stop-color="#A00704"/>
</linearGradient>
<linearGradient id="paint2_linear_4526_9585" x1="7.94533" y1="3.93678" x2="11.8803" y2="3.93678" gradientUnits="userSpaceOnUse">
<stop offset="0.0838" stop-color="#FE6501"/>
<stop offset="0.4786" stop-color="#F83405"/>
<stop offset="1" stop-color="#A00704"/>
</linearGradient>
<linearGradient id="paint3_linear_4526_9585" x1="5.40216" y1="3.48746" x2="8.85473" y2="3.48746" gradientUnits="userSpaceOnUse">
<stop offset="0.0838" stop-color="#FE6501"/>
<stop offset="0.4786" stop-color="#F83405"/>
<stop offset="1" stop-color="#A00704"/>
</linearGradient>
<linearGradient id="paint4_linear_4526_9585" x1="3.15536" y1="3.55485" x2="6.34445" y2="3.55485" gradientUnits="userSpaceOnUse">
<stop stop-color="#F36E21"/>
<stop offset="0.1761" stop-color="#C9CBBE"/>
<stop offset="0.3299" stop-color="#BEE3E7"/>
<stop offset="0.5624" stop-color="#FC8B2B"/>
<stop offset="1" stop-color="#DA1B03"/>
</linearGradient>
<linearGradient id="paint5_linear_4526_9585" x1="7.92158" y1="3.62973" x2="11.4435" y2="3.62973" gradientUnits="userSpaceOnUse">
<stop stop-color="#F36E21"/>
<stop offset="0.1761" stop-color="#C9CBBE"/>
<stop offset="0.3299" stop-color="#BEE3E7"/>
<stop offset="0.5624" stop-color="#FC8B2B"/>
<stop offset="1" stop-color="#DA1B03"/>
</linearGradient>
<linearGradient id="paint6_linear_4526_9585" x1="4.95222" y1="2.44031" x2="8.06953" y2="2.44031" gradientUnits="userSpaceOnUse">
<stop offset="0.0838" stop-color="#166125"/>
<stop offset="0.9966" stop-color="#7C6000"/>
</linearGradient>
<radialGradient id="paint7_radial_4526_9585" cx="0" cy="0" r="1" gradientUnits="userSpaceOnUse" gradientTransform="translate(12.0779 6.3412) scale(5.35061)">
<stop offset="0.4786" stop-color="#FE8B2A"/>
<stop offset="1" stop-color="#DA1B03"/>
</radialGradient>
<linearGradient id="paint8_linear_4526_9585" x1="11.5963" y1="4.84985" x2="12.0418" y2="11.6202" gradientUnits="userSpaceOnUse">
<stop offset="0.3778" stop-color="#FE6501"/>
<stop offset="0.6017" stop-color="#F83405"/>
<stop offset="1" stop-color="#A00704"/>
</linearGradient>
<linearGradient id="paint9_linear_4526_9585" x1="9.5704" y1="8.22567" x2="12.5439" y2="8.22567" gradientUnits="userSpaceOnUse">
<stop offset="0.1333" stop-color="#F83405"/>
<stop offset="1" stop-color="#A00704"/>
</linearGradient>
<radialGradient id="paint10_radial_4526_9585" cx="0" cy="0" r="1" gradientUnits="userSpaceOnUse" gradientTransform="translate(10.3391 7.59466) scale(4.51069)">
<stop offset="0.4786" stop-color="#FE8B2A"/>
<stop offset="1" stop-color="#DA1B03"/>
</radialGradient>
<linearGradient id="paint11_linear_4526_9585" x1="9.36338" y1="4.91182" x2="9.47473" y2="12.328" gradientUnits="userSpaceOnUse">
<stop offset="0.0838" stop-color="#FE6501"/>
<stop offset="0.4786" stop-color="#F83405"/>
<stop offset="1" stop-color="#A00704"/>
</linearGradient>
<linearGradient id="paint12_linear_4526_9585" x1="1.19331" y1="8.07171" x2="5.06847" y2="8.07171" gradientUnits="userSpaceOnUse">
<stop offset="0.0838" stop-color="#FE6501"/>
<stop offset="0.4786" stop-color="#F83405"/>
<stop offset="1" stop-color="#A00704"/>
</linearGradient>
<linearGradient id="paint13_linear_4526_9585" x1="1.77151" y1="7.49366" x2="5.06853" y2="7.49366" gradientUnits="userSpaceOnUse">
<stop offset="0.0838" stop-color="#FF9500"/>
<stop offset="0.4786" stop-color="#F83405"/>
<stop offset="1" stop-color="#A00704"/>
</linearGradient>
<linearGradient id="paint14_linear_4526_9585" x1="4.61713" y1="3.92436" x2="3.59267" y2="11.3628" gradientUnits="userSpaceOnUse">
<stop offset="0.1333" stop-color="#F83405"/>
<stop offset="1" stop-color="#A00704"/>
</linearGradient>
<radialGradient id="paint15_radial_4526_9585" cx="0" cy="0" r="1" gradientUnits="userSpaceOnUse" gradientTransform="translate(5.88267 7.36148) scale(5.78918)">
<stop offset="0.4786" stop-color="#FE8B2A"/>
<stop offset="1" stop-color="#DA1B03"/>
</radialGradient>
<linearGradient id="paint16_linear_4526_9585" x1="3.94296" y1="8.13802" x2="7.02424" y2="8.13802" gradientUnits="userSpaceOnUse">
<stop offset="0.0838" stop-color="#FE6501"/>
<stop offset="0.4786" stop-color="#F83405"/>
<stop offset="1" stop-color="#A00704"/>
</linearGradient>
<radialGradient id="paint17_radial_4526_9585" cx="0" cy="0" r="1" gradientUnits="userSpaceOnUse" gradientTransform="translate(6.18517 6.13554) scale(7.23907)">
<stop offset="0.4786" stop-color="#FE8B2A"/>
<stop offset="1" stop-color="#DA1B03"/>
</radialGradient>
<radialGradient id="paint18_radial_4526_9585" cx="0" cy="0" r="1" gradientUnits="userSpaceOnUse" gradientTransform="translate(5.94357 6.13554) scale(6.76696)">
<stop offset="0.1179" stop-color="#F2671E"/>
<stop offset="1" stop-color="#DA1B03"/>
</radialGradient>
<linearGradient id="paint19_linear_4526_9585" x1="3.11364" y1="8.6196" x2="6.74751" y2="8.6196" gradientUnits="userSpaceOnUse">
<stop stop-color="#F36E21"/>
<stop offset="0.1761" stop-color="#C9CBBE"/>
<stop offset="0.3299" stop-color="#BEE3E7"/>
<stop offset="0.5624" stop-color="#FC8B2B"/>
<stop offset="1" stop-color="#DA1B03"/>
</linearGradient>
<linearGradient id="paint20_linear_4526_9585" x1="1.16837" y1="8.0615" x2="4.99681" y2="8.0615" gradientUnits="userSpaceOnUse">
<stop stop-color="#F36E21"/>
<stop offset="0.1761" stop-color="#C9CBBE"/>
<stop offset="0.3299" stop-color="#BEE3E7"/>
<stop offset="0.5624" stop-color="#FC8B2B"/>
<stop offset="1" stop-color="#DA1B03"/>
</linearGradient>
<linearGradient id="paint21_linear_4526_9585" x1="9.99813" y1="4.21103" x2="10.5104" y2="12.4513" gradientUnits="userSpaceOnUse">
<stop stop-color="#F36E21"/>
<stop offset="0.1761" stop-color="#C9CBBE"/>
<stop offset="0.3299" stop-color="#BEE3E7"/>
<stop offset="0.5624" stop-color="#FC8B2B"/>
<stop offset="1" stop-color="#DA1B03"/>
</linearGradient>
<linearGradient id="paint22_linear_4526_9585" x1="12.1234" y1="2.68343" x2="11.2549" y2="12.104" gradientUnits="userSpaceOnUse">
<stop stop-color="#F36E21"/>
<stop offset="0.1761" stop-color="#C9CBBE"/>
<stop offset="0.3299" stop-color="#BEE3E7"/>
<stop offset="0.5624" stop-color="#FC8B2B"/>
<stop offset="1" stop-color="#DA1B03"/>
</linearGradient>
<radialGradient id="paint23_radial_4526_9585" cx="0" cy="0" r="1" gradientUnits="userSpaceOnUse" gradientTransform="translate(10.1382 6.17463) rotate(-16.2875) scale(1.0459 1.24261)">
<stop offset="0.0838" stop-color="#FEFFE1"/>
<stop offset="1" stop-color="#FFFE8B"/>
</radialGradient>
<linearGradient id="paint24_linear_4526_9585" x1="10.3976" y1="6.72637" x2="10.0308" y2="5.02278" gradientUnits="userSpaceOnUse">
<stop offset="0.0838" stop-color="#FD3B00"/>
<stop offset="1" stop-color="#A63703"/>
</linearGradient>
<radialGradient id="paint25_radial_4526_9585" cx="0" cy="0" r="1" gradientUnits="userSpaceOnUse" gradientTransform="translate(8.14953 7.88981) rotate(4.28401) scale(0.770044)">
<stop offset="0.0838" stop-color="#FEFFE1"/>
<stop offset="1" stop-color="#FFFE8B"/>
</radialGradient>
<linearGradient id="paint26_linear_4526_9585" x1="7.289" y1="7.85376" x2="8.91353" y2="7.85376" gradientUnits="userSpaceOnUse">
<stop offset="0.0838" stop-color="#FD3B00"/>
<stop offset="1" stop-color="#A63703"/>
</linearGradient>
<radialGradient id="paint27_radial_4526_9585" cx="0" cy="0" r="1" gradientUnits="userSpaceOnUse" gradientTransform="translate(7.6453 9.85193) rotate(5.76685) scale(2.48891 2.36324)">
<stop offset="0.0838" stop-color="#FEFFE1"/>
<stop offset="1" stop-color="#FFFE8B"/>
</radialGradient>
<linearGradient id="paint28_linear_4526_9585" x1="4.75959" y1="9.70683" x2="10.7915" y2="9.70683" gradientUnits="userSpaceOnUse">
<stop offset="0.0838" stop-color="#FD3B00"/>
<stop offset="1" stop-color="#A63703"/>
</linearGradient>
<linearGradient id="paint29_linear_4526_9585" x1="4.75959" y1="10.0255" x2="10.7916" y2="10.0255" gradientUnits="userSpaceOnUse">
<stop offset="0.0838" stop-color="#FD3B00"/>
<stop offset="1" stop-color="#A63703"/>
</linearGradient>
<radialGradient id="paint30_radial_4526_9585" cx="0" cy="0" r="1" gradientUnits="userSpaceOnUse" gradientTransform="translate(5.68591 6.28551) rotate(-165.673) scale(1.1471 1.24255)">
<stop offset="0.0838" stop-color="#FEFFE1"/>
<stop offset="1" stop-color="#FFFE8B"/>
</radialGradient>
<linearGradient id="paint31_linear_4526_9585" x1="5.43862" y1="6.83427" x2="5.73478" y2="5.12686" gradientUnits="userSpaceOnUse">
<stop offset="0.0838" stop-color="#FD3B00"/>
<stop offset="1" stop-color="#A63703"/>
</linearGradient>
</defs>
</svg>
