<svg width="8" height="11" viewBox="0 0 8 11" fill="none" xmlns="http://www.w3.org/2000/svg">
<path opacity="0.77" d="M4.14021 5.67862L4.01422 5.67963C3.97009 4.2482 3.92597 2.81676 3.88184 1.38499C3.88255 0.753325 3.88326 0.47038 3.88397 -0.161621C3.96938 1.90148 4.05479 3.61552 4.14021 5.67862Z" fill="#828282"/>
<path fill-rule="evenodd" clip-rule="evenodd" d="M6.53652 7.47167C6.53581 7.46669 6.53083 7.44462 6.51944 7.41686C6.51161 7.39765 6.49666 7.37558 6.47887 7.36063C6.43901 7.32861 6.39844 7.32291 6.36997 7.31437C6.24897 7.28376 6.1301 7.25387 6.0148 7.22469C5.78419 7.16632 5.56924 7.11223 5.38489 7.06525C5.25392 7.0318 5.13862 7.00262 5.04395 6.97913C5.12367 6.95351 5.21478 6.92503 5.31585 6.89301C5.49877 6.83535 5.7123 6.76774 5.94078 6.69514C6.05537 6.65884 6.17281 6.62182 6.2931 6.58339C6.3237 6.57342 6.34719 6.56702 6.35716 6.56915C6.36428 6.57058 6.36855 6.57129 6.37709 6.57698C6.38492 6.58268 6.39417 6.59051 6.40413 6.60118C6.44755 6.64674 6.49097 6.69229 6.5351 6.73855C7.23619 7.4738 7.93656 8.20906 7.93656 8.20906C7.93656 8.20906 7.27676 7.42541 6.61766 6.64104C6.57638 6.59193 6.5351 6.54282 6.49382 6.49371C6.48243 6.48089 6.46962 6.46666 6.45253 6.45314C6.43616 6.44032 6.41268 6.42751 6.3899 6.42253C6.33936 6.41257 6.30093 6.42751 6.27175 6.43392C6.15075 6.46452 6.03188 6.49371 5.91658 6.52289C5.68596 6.58054 5.47101 6.63464 5.28595 6.68019C5.20197 6.70083 5.12509 6.72076 5.05534 6.73784C5.13008 6.67592 5.20908 6.60403 5.28951 6.52004C5.46816 6.33143 5.65038 6.08587 5.78632 5.79475C5.85821 5.65098 5.91373 5.4951 5.96498 5.33709C6.01266 5.17694 6.0511 5.01253 6.07815 4.84597C6.18705 4.17834 6.10733 3.50145 5.96355 3.02457C5.89238 2.78542 5.80625 2.59538 5.73721 2.46797C5.70233 2.40462 5.67315 2.35551 5.65109 2.32348C5.62973 2.29074 5.61906 2.27366 5.61906 2.27366C5.61906 2.27366 5.62902 2.29145 5.64824 2.32491C5.66817 2.35765 5.69451 2.40818 5.72582 2.47367C5.78703 2.60392 5.86177 2.79681 5.918 3.03667C6.0333 3.51426 6.07174 4.18332 5.93081 4.81822C5.89593 4.97623 5.84967 5.13139 5.79629 5.28086C5.73863 5.4282 5.67813 5.57197 5.60411 5.70151C5.46176 5.96558 5.28239 6.17982 5.11157 6.34139C5.0589 6.3905 5.00765 6.43392 4.95783 6.47378C5.31798 5.94565 5.30944 5.2951 4.97135 4.89437C4.65177 4.51714 4.16065 4.50717 4.12008 4.50717C4.08521 4.50717 3.51509 4.51429 3.19123 4.97979C2.91293 5.38051 2.93571 5.94921 3.26099 6.3784C3.24746 6.3663 3.23323 6.3542 3.2197 6.34068C3.04888 6.17911 2.8688 5.96487 2.72716 5.7008C2.65243 5.57055 2.59193 5.42749 2.53499 5.28015C2.4816 5.13139 2.43534 4.97623 2.40046 4.8175C2.25953 4.18261 2.29726 3.51355 2.41328 3.03596C2.47022 2.7961 2.54424 2.60321 2.60545 2.47295C2.63677 2.40818 2.66239 2.35765 2.68303 2.3242C2.70225 2.29074 2.71222 2.27295 2.71222 2.27295C2.71222 2.27295 2.70083 2.29003 2.68019 2.32277C2.65812 2.3548 2.62894 2.40391 2.59406 2.46726C2.52573 2.59467 2.4389 2.78471 2.36772 3.02386C2.22395 3.50074 2.14423 4.17763 2.25313 4.84526C2.28018 5.01182 2.31861 5.17623 2.3663 5.33638C2.41755 5.4951 2.47377 5.65098 2.54495 5.79404C2.6809 6.08444 2.86311 6.33071 3.04176 6.51933C3.12219 6.60332 3.2012 6.67521 3.27593 6.73713C3.20618 6.72005 3.12931 6.70012 3.04532 6.67948C2.86097 6.63321 2.64531 6.57983 2.4147 6.52218C2.29939 6.49371 2.18053 6.46381 2.05953 6.43321C2.03035 6.4268 1.99191 6.41257 1.94138 6.42182C1.9186 6.42609 1.89511 6.4389 1.87874 6.45243C1.86166 6.46595 1.84885 6.48018 1.83746 6.49299C1.79618 6.54211 1.75489 6.59122 1.71361 6.64033C1.05238 7.42469 0.392578 8.20835 0.392578 8.20835C0.392578 8.20835 1.09295 7.47309 1.79404 6.73784C1.83746 6.69229 1.88159 6.64602 1.92501 6.60047C1.93497 6.59051 1.94422 6.58197 1.95205 6.57627C1.96059 6.57058 1.96486 6.56915 1.97198 6.56844C1.98195 6.56631 2.00543 6.57271 2.03604 6.58268C2.15633 6.6204 2.27377 6.65812 2.38836 6.69442C2.61684 6.76702 2.83037 6.83464 3.01329 6.89229C3.11436 6.92432 3.20547 6.95351 3.28519 6.97842C3.19052 7.00262 3.07522 7.03109 2.94425 7.06454C2.7599 7.11081 2.54495 7.16561 2.31434 7.22398C2.19903 7.25316 2.08017 7.28305 1.95917 7.31366C1.9307 7.3222 1.89013 7.32718 1.85027 7.35992C1.83248 7.37487 1.81753 7.39693 1.8097 7.41615C1.80116 7.43608 1.79618 7.45459 1.79262 7.47096C1.77909 7.53359 1.76628 7.59623 1.75276 7.65958C1.54208 8.66245 1.33211 9.66533 1.33211 9.66533C1.33211 9.66533 1.60186 8.68594 1.87162 7.70655C1.88871 7.64534 1.90508 7.58484 1.92216 7.52363C1.92643 7.5101 1.92999 7.498 1.93497 7.48946C1.93995 7.48092 1.9428 7.47736 1.94849 7.47309C1.95632 7.46669 1.98052 7.46099 2.01184 7.4553C2.13569 7.43181 2.2574 7.40903 2.37484 7.38697C2.61043 7.34284 2.83037 7.30156 3.01899 7.26597C3.11792 7.24746 3.2076 7.23038 3.28661 7.21544C3.25387 7.25031 3.22042 7.28732 3.18483 7.32576C3.04603 7.47879 2.88375 7.64676 2.71008 7.84606C2.62396 7.94642 2.54068 8.06172 2.47449 8.18699C2.40758 8.31155 2.35776 8.44679 2.32075 8.58344C2.24672 8.85747 2.23391 9.14004 2.2517 9.39913C2.27092 9.65821 2.32003 9.89523 2.36843 10.0945C2.41826 10.2938 2.46737 10.4575 2.50082 10.5721C2.5357 10.6867 2.55492 10.7515 2.55492 10.7515C2.55492 10.7515 2.53997 10.6853 2.51292 10.5686C2.48659 10.4518 2.44886 10.2853 2.41328 10.0846C2.3784 9.88384 2.34637 9.64753 2.34566 9.39557C2.34566 9.14431 2.37698 8.87527 2.4631 8.62686C2.5058 8.50302 2.5599 8.38344 2.62752 8.27596C2.69442 8.16777 2.77343 8.0724 2.86026 7.98414C3.03536 7.80905 3.21614 7.64463 3.36277 7.50441C3.45103 7.42042 3.53074 7.34569 3.59907 7.28092C3.61117 7.33786 3.63751 7.42754 3.70014 7.51936C3.72577 7.55708 3.92008 7.8304 4.23966 7.80976C4.25817 7.80833 4.52864 7.78627 4.67526 7.55495C4.73647 7.45815 4.75142 7.36348 4.7564 7.30939C4.81761 7.36704 4.88737 7.43324 4.96281 7.50441C5.10944 7.64534 5.29022 7.80905 5.46532 7.98414C5.55215 8.0724 5.63116 8.16777 5.69806 8.27596C5.76568 8.38344 5.81978 8.50302 5.86248 8.62686C5.94861 8.87598 5.97992 9.14431 5.97992 9.39557C5.97921 9.64753 5.94718 9.88384 5.91231 10.0846C5.87672 10.2853 5.83899 10.4518 5.81266 10.5686C5.78561 10.6853 5.77066 10.7515 5.77066 10.7515C5.77066 10.7515 5.79059 10.686 5.82476 10.5721C5.85892 10.4575 5.90803 10.2938 5.95715 10.0945C6.00555 9.89523 6.05466 9.65892 6.07388 9.39913C6.09167 9.14004 6.07886 8.85747 6.00483 8.58344C5.96782 8.44679 5.918 8.31226 5.85109 8.18699C5.7849 8.06172 5.70162 7.94642 5.6155 7.84606C5.44183 7.64676 5.27955 7.47879 5.14075 7.32576C5.10517 7.28732 5.071 7.25031 5.03897 7.21544C5.11798 7.23038 5.20766 7.24746 5.30659 7.26597C5.49521 7.30156 5.71515 7.34284 5.95074 7.38697C6.06889 7.40903 6.19061 7.43181 6.31374 7.4553C6.34577 7.46099 6.36926 7.46669 6.37709 7.47309C6.38278 7.47736 6.38634 7.48092 6.39061 7.48946C6.39488 7.498 6.39915 7.50939 6.40342 7.52363C6.4205 7.58413 6.43688 7.64534 6.45396 7.70655C6.72372 8.68594 6.99347 9.66533 6.99347 9.66533C6.73297 8.41618 6.54435 7.52007 6.53652 7.47167Z" fill="#1D0339"/>
<path d="M3.81778 5.61634C3.81067 5.47768 3.90026 5.32622 4.05243 5.29209C4.21313 5.25583 4.36814 5.36676 4.41294 5.50826C4.46911 5.68674 4.34539 5.90077 4.16051 5.92281C3.98843 5.94343 3.82702 5.79055 3.81778 5.61634Z" fill="#F14678"/>
<path d="M3.66131 7.60154C3.65846 7.55385 3.68978 7.50189 3.74174 7.48979C3.79726 7.47698 3.85064 7.51542 3.8663 7.56453C3.88552 7.62574 3.84281 7.69976 3.77946 7.70759C3.72039 7.71471 3.66487 7.66204 3.66131 7.60154Z" fill="#F7D583"/>
<path d="M4.5158 7.53025C4.51296 7.48256 4.54427 7.4306 4.59623 7.4185C4.65175 7.40569 4.70513 7.44413 4.72079 7.49324C4.74001 7.55445 4.6973 7.62847 4.63396 7.6363C4.57488 7.64342 4.51936 7.59075 4.5158 7.53025Z" fill="#F7D583"/>
</svg>
